<svg width="89" height="18" viewBox="0 0 89 18" xmlns="http://www.w3.org/2000/svg"><title>EY logo</title><g fill="#E82429" fill-rule="evenodd"><path d="M0 3.23h6.26v1.985H2.256v2.54h3.912v1.983H2.256v2.677H6.26V14.4H0V3.23M7.825 5.796h1.853c0 .37 0 .71-.015 1.102.36-.65 1.1-1.374 2.575-1.36 2.696 0 3.222 2.078 3.222 3.55v4.997h-1.974v-4.5c0-1.238-.407-2.19-1.792-2.19-1.4.016-1.882.952-1.882 2.124v4.574H7.825V5.796M25.42 13.097c0 1.36-.255 2.236-.768 2.93-.707.952-2.092 1.707-3.795 1.708-2.575 0-3.81-1.54-4.11-2.824h2.29c.18.37.505.647.873.846.407.23.83.277 1.105.277 1.175 0 2.455-.817 2.455-2.492v-.693c-.407.74-1.28 1.48-2.68 1.48-2.38 0-4.22-1.813-4.22-4.364 0-2.703 1.93-4.425 4.22-4.425 1.19 0 2.208.554 2.67 1.36V5.78h1.986v7.318h-.025zM18.51 9.91c0 1.43 1.06 2.538 2.486 2.55.738 0 1.325-.256 1.762-.707.437-.44.693-1.06.708-1.768 0-.635-.196-1.3-.604-1.782-.39-.498-1.008-.83-1.866-.83-1.34 0-2.47 1.042-2.47 2.52v.033l-.016-.017zM27.16 6h1.978v8.308h-1.98zM30.84 5.796h1.853c0 .37 0 .71-.015 1.102.362-.65 1.1-1.374 2.576-1.36 2.695 0 3.222 2.078 3.222 3.55v4.997h-1.973v-4.5c0-1.238-.406-2.19-1.792-2.19-1.4.016-1.882.952-1.882 2.124v4.574h-1.972V5.796M41.116 10.597c.09 1.338 1.243 2.077 2.394 2.053.964 0 1.61-.437 1.988-1.117h2.033c-.39.92-.98 1.616-1.67 2.084-.693.484-1.507.725-2.366.725-2.545 0-4.367-2.07-4.367-4.38 0-2.355 1.838-4.424 4.337-4.424 1.236 0 2.302.462 3.085 1.27 1.008 1.06 1.38 2.353 1.196 3.79h-6.63zm4.714-1.512c-.075-.785-.903-1.887-2.35-1.872-1.46 0-2.258 1.057-2.334 1.872h4.684zM54.96 10.43l-3.404-7.2h2.44L56.11 8.31 58.23 3.23h2.393l-3.406 7.2v3.97H54.96v-3.97M68.803 14.085H66.83v-1.193c-.527.967-1.627 1.45-2.786 1.45-2.65 0-4.203-2.07-4.203-4.41 0-2.612 1.884-4.394 4.204-4.394 1.506 0 2.44.785 2.808 1.465V5.795h1.972v8.29h-.02zm-6.988-4.123c0 1.015.737 2.538 2.53 2.522 1.102 0 1.823-.574 2.2-1.33.196-.36.287-.754.316-1.162.016-.393-.06-.8-.224-1.163-.346-.787-1.115-1.466-2.305-1.466-1.596 0-2.5 1.3-2.5 2.583v.03l-.015-.015zM70.43 5.796h1.867v1.087c.36-.74 1.04-1.33 2.29-1.345v1.994h-.092c-1.384 0-2.092.65-2.092 2.084v4.47H70.43v-8.29M83.47 14.405h-1.88v-1.193c-.362.62-1.145 1.45-2.832 1.45-2.545 0-4.187-1.993-4.187-4.41 0-2.687 1.914-4.393 4.157-4.393 1.582 0 2.486.83 2.762 1.328V3.23h1.972v11.175h.01zm-6.926-4.17c0 1.385 1.013 2.54 2.532 2.552.722 0 1.37-.286 1.837-.754.467-.47.738-1.118.708-1.843 0-.724-.286-1.344-.737-1.782-.452-.453-1.084-.724-1.793-.724-1.61 0-2.544 1.238-2.544 2.536v.032l-.002-.016zM25.086 3.254h1.808l1.517 1.512v-2.86c0-.617-.498-1.117-1.112-1.117-.267 0-.508.093-.7.23-.236-.605-.81-1.02-1.5-1.02-.895 0-1.622.728-1.622 1.626-.013.912.702 1.605 1.623 1.605M86.522 3.487h-.284v-.245h.86v.245h-.284v1.035h-.292V3.487zm.746-.245h.37l.342.877.336-.89h.37v1.28h-.274v-.93l-.34.942h-.19l-.34-.937v.937h-.274v-1.28z"/></g></svg>